<?xml version="1.0" encoding="UTF-8"?>
<svg xmlns="http://www.w3.org/2000/svg" xmlns:xlink="http://www.w3.org/1999/xlink" width="128px" height="128px" viewBox="0 0 128 128" version="1.1">
<g id="surface1">
<path d="M 126.65625 23.902344 C 125.300781 23.242188 124.714844 24.507812 123.925781 25.152344 C 123.652344 25.359375 123.425781 25.632812 123.195312 25.878906 C 121.210938 27.996094 118.894531 29.382812 115.871094 29.214844 C 111.449219 28.96875 107.675781 30.355469 104.335938 33.738281 C 103.625 29.566406 101.269531 27.082031 97.683594 25.484375 C 95.808594 24.652344 93.910156 23.824219 92.59375 22.015625 C 91.675781 20.730469 91.425781 19.296875 90.964844 17.886719 C 90.671875 17.035156 90.378906 16.164062 89.402344 16.019531 C 88.335938 15.855469 87.921875 16.746094 87.503906 17.492188 C 85.835938 20.542969 85.1875 23.902344 85.253906 27.308594 C 85.398438 34.964844 88.628906 41.066406 95.054688 45.402344 C 95.785156 45.898438 95.972656 46.398438 95.742188 47.125 C 95.308594 48.617188 94.785156 50.070312 94.324219 51.566406 C 94.03125 52.523438 93.59375 52.726562 92.570312 52.316406 C 89.109375 50.828125 85.96875 48.691406 83.3125 46.019531 C 78.742188 41.605469 74.613281 36.730469 69.460938 32.910156 C 68.269531 32.03125 67.042969 31.191406 65.785156 30.398438 C 60.535156 25.296875 66.480469 21.105469 67.855469 20.609375 C 69.296875 20.085938 68.351562 18.304688 63.703125 18.324219 C 59.050781 18.347656 54.792969 19.898438 49.371094 21.972656 C 48.566406 22.28125 47.734375 22.527344 46.890625 22.703125 C 41.820312 21.75 36.636719 21.566406 31.515625 22.160156 C 21.460938 23.28125 13.433594 28.039062 7.53125 36.148438 C 0.4375 45.898438 -1.230469 56.980469 0.8125 68.535156 C 2.960938 80.714844 9.179688 90.800781 18.730469 98.683594 C 28.640625 106.859375 40.046875 110.863281 53.066406 110.097656 C 60.96875 109.644531 69.777344 108.582031 79.703125 100.175781 C 82.207031 101.425781 84.832031 101.921875 89.195312 102.292969 C 92.554688 102.609375 95.785156 102.132812 98.289062 101.609375 C 102.207031 100.777344 101.9375 97.148438 100.523438 96.484375 C 89.03125 91.128906 91.550781 93.3125 89.253906 91.546875 C 95.097656 84.632812 103.898438 77.457031 107.34375 54.199219 C 107.609375 52.347656 107.382812 51.183594 107.34375 49.691406 C 107.324219 48.785156 107.53125 48.425781 108.570312 48.324219 C 111.457031 48.027344 114.253906 47.164062 116.8125 45.792969 C 124.257812 41.722656 127.265625 35.046875 127.972656 27.035156 C 128.078125 25.808594 127.953125 24.542969 126.65625 23.898438 Z M 61.765625 96 C 50.625 87.242188 45.222656 84.355469 42.992188 84.480469 C 40.902344 84.609375 41.28125 86.992188 41.738281 88.550781 C 42.21875 90.085938 42.84375 91.140625 43.71875 92.492188 C 44.324219 93.382812 44.742188 94.710938 43.113281 95.707031 C 39.523438 97.925781 33.289062 94.960938 32.996094 94.816406 C 25.738281 90.539062 19.664062 84.894531 15.390625 77.179688 C 11.265625 69.75 8.863281 61.78125 8.46875 53.273438 C 8.363281 51.214844 8.964844 50.492188 11.011719 50.117188 C 13.703125 49.601562 16.457031 49.53125 19.167969 49.910156 C 30.539062 51.574219 40.214844 56.65625 48.332031 64.703125 C 52.960938 69.289062 56.464844 74.769531 60.074219 80.121094 C 63.914062 85.808594 68.042969 91.226562 73.300781 95.664062 C 75.15625 97.222656 76.632812 98.40625 78.054688 99.273438 C 73.777344 99.753906 66.640625 99.863281 61.765625 96 Z M 67.097656 61.652344 C 67.097656 61.117188 67.359375 60.609375 67.800781 60.304688 C 68.246094 60 68.808594 59.929688 69.3125 60.121094 C 70.378906 62.097656 70.207031 62.515625 69.894531 62.824219 C 69.585938 63.132812 69.164062 63.300781 68.726562 63.296875 C 68.292969 63.296875 67.875 63.125 67.570312 62.816406 C 67.265625 62.507812 67.097656 62.085938 67.105469 61.652344 Z M 83.683594 70.164062 C 82.617188 70.597656 81.558594 70.96875 80.539062 71.019531 C 79.007812 71.070312 77.503906 70.59375 76.28125 69.664062 C 74.820312 68.4375 73.777344 67.753906 73.339844 65.621094 C 73.1875 64.578125 73.214844 63.519531 73.425781 62.484375 C 73.796875 60.742188 73.382812 59.621094 72.148438 58.609375 C 71.152344 57.777344 69.878906 57.546875 68.480469 57.546875 C 68 57.519531 67.535156 57.375 67.125 57.128906 C 66.539062 56.84375 66.058594 56.117188 66.515625 55.222656 C 66.667969 54.933594 67.371094 54.230469 67.542969 54.101562 C 69.441406 53.023438 71.632812 53.375 73.652344 54.1875 C 75.53125 54.953125 76.949219 56.363281 78.992188 58.355469 C 81.078125 60.761719 81.457031 61.429688 82.644531 63.230469 C 83.585938 64.644531 84.4375 66.097656 85.019531 67.753906 C 85.375 68.792969 84.917969 69.644531 83.683594 70.164062 Z M 83.683594 70.164062 "/>
</g>
</svg>
